<svg width="56.000000" height="56.000000" viewBox="0 0 56 56" fill="none" xmlns="http://www.w3.org/2000/svg" xmlns:xlink="http://www.w3.org/1999/xlink">
	<desc>
			Created with Pixso.
	</desc>
	<defs>
		<clipPath id="clip9_3919">
			<rect id="css-3 1" rx="-0.500000" width="55.000000" height="55.000000" transform="translate(0.500000 0.500000)" fill="white" fill-opacity="0"/>
		</clipPath>
	</defs>
	<rect id="css-3 1" rx="-0.500000" width="55.000000" height="55.000000" transform="translate(0.500000 0.500000)" fill="#FFFFFF" fill-opacity="0"/>
	<g clip-path="url(#clip9_3919)">
		<path id="polygon2989_00000091712160093483359120000013545222466388029605_" d="M47.83 11L44.22 51.49L27.97 56L11.77 51.5L8.16 11L47.83 11Z" fill="#004CE8" fill-opacity="1.000000" fill-rule="nonzero"/>
		<path id="polygon2991_00000130636505511401349330000011479272249651210121_" d="M41.12 48.91L44.21 14.31L28 14.31L28 52.55L41.12 48.91Z" fill="#0065F4" fill-opacity="1.000000" fill-rule="nonzero"/>
		<path id="polygon2993_00000027586116533142052040000014804943466300760462_" d="M16.44 29.33L16.88 34.3L28 34.3L30.13 31.81L28 29.33L16.44 29.33Z" fill="#EBEBEB" fill-opacity="1.000000" fill-rule="nonzero"/>
		<path id="polygon2995_00000098936504455534668280000009583779879621411251_" d="M28 19.28L27.98 19.28L15.54 19.28L15.99 24.25L28 24.25L30.13 21.76L28 19.28Z" fill="#EBEBEB" fill-opacity="1.000000" fill-rule="nonzero"/>
		<path id="polygon2997_00000011734588395863960860000002272664363377641402_" d="M28 47.4L30.13 44.76L28 42.23L27.97 42.24L22.44 40.74L22.09 36.78L19.4 36.78L17.1 36.78L17.8 44.58L27.97 47.4L28 47.4Z" fill="#EBEBEB" fill-opacity="1.000000" fill-rule="nonzero"/>
		<path id="path2999_00000183935336956994173500000009856227378309738643_" d="M17.5 0L23.51 0L23.51 2.51L20.01 2.51L20.01 5.03L23.51 5.03L23.51 7.54L17.5 7.54L17.5 0Z" fill="#FFFFFF" fill-opacity="1.000000" fill-rule="nonzero"/>
		<path id="path3001_00000096055226761582317920000005110122629658984122_" d="M24.71 0L30.73 0L30.73 2.18L27.23 2.18L27.23 2.62L30.73 2.62L30.73 7.65L24.71 7.65L24.71 5.35L28.21 5.35L28.21 4.92L24.71 4.92L24.71 0Z" fill="#FFFFFF" fill-opacity="1.000000" fill-rule="nonzero"/>
		<path id="path3003_00000136402835624896882680000006132478931596835508_" d="M31.93 0L37.95 0L37.95 2.18L34.45 2.18L34.45 2.62L37.95 2.62L37.95 7.65L31.93 7.65L31.93 5.35L35.43 5.35L35.43 4.92L31.93 4.92L31.93 0Z" fill="#FFFFFF" fill-opacity="1.000000" fill-rule="nonzero"/>
		<path id="polygon3005_00000173137955367200700520000015002477665718237887_" d="M34.09 34.3L33.52 40.74L27.98 42.23L27.98 47.4L38.16 44.58L38.23 43.74L39.4 30.67L39.52 29.33L40.42 19.28L27.98 19.28L27.98 24.25L34.98 24.25L34.52 29.33L27.98 29.33L27.98 34.3L34.09 34.3Z" fill="#FFFFFF" fill-opacity="1.000000" fill-rule="nonzero"/>
	</g>
</svg>
