<svg width="36.000000" height="36.000000" viewBox="0 0 36 36" fill="none" xmlns="http://www.w3.org/2000/svg" xmlns:xlink="http://www.w3.org/1999/xlink">
	<desc>
			Created with Pixso.
	</desc>
	<defs/>
	<path id="Vector" d="M18 0C27.94 0 36 8.05 36 18C36 27.94 27.94 36 18 36C8.05 36 0 27.94 0 18C0 8.05 8.05 0 18 0Z" fill="#47474A" fill-opacity="1.000000" fill-rule="evenodd"/>
	<path id="Vector" d="M20.33 35.84L20.33 21.94L24.25 21.94L24.77 17.05L20.33 17.05L20.34 14.6C20.34 13.32 20.46 12.64 22.29 12.64L24.75 12.64L24.75 7.74L20.83 7.74C16.12 7.74 14.46 10.12 14.46 14.11L14.46 17.05L11.52 17.05L11.52 21.94L14.46 21.94L14.46 35.65C15.6 35.87 16.78 36 18 36C18.78 36 19.56 35.94 20.33 35.84Z" fill="#FFFFFF" fill-opacity="1.000000" fill-rule="nonzero"/>
</svg>
