<svg width="37.006592" height="36.000000" viewBox="0 0 37.0066 36" fill="none" xmlns="http://www.w3.org/2000/svg" xmlns:xlink="http://www.w3.org/1999/xlink">
	<desc>
			Created with Pixso.
	</desc>
	<defs>
		<clipPath id="clip14_86">
			<rect id="github-icon-1 1" rx="-0.500000" width="36.006580" height="35.000000" transform="translate(0.500000 0.500000)" fill="white" fill-opacity="0"/>
		</clipPath>
	</defs>
	<rect id="github-icon-1 1" rx="-0.500000" width="36.006580" height="35.000000" transform="translate(0.500000 0.500000)" fill="#FFFFFF" fill-opacity="0"/>
	<g clip-path="url(#clip14_86)">
		<path id="Vector" d="M18.43 0C8.25 0 0 8.25 0 18.43C0 26.57 5.28 33.48 12.6 35.92C13.52 36.09 13.86 35.52 13.86 35.03C13.86 34.59 13.84 33.14 13.83 31.6C8.71 32.71 7.62 29.42 7.62 29.42C6.79 27.29 5.58 26.73 5.58 26.73C3.91 25.58 5.7 25.61 5.7 25.61C7.55 25.74 8.53 27.51 8.53 27.51C10.17 30.32 12.84 29.51 13.89 29.04C14.06 27.85 14.54 27.03 15.06 26.57C10.97 26.11 6.67 24.53 6.67 17.46C6.67 15.45 7.39 13.81 8.56 12.52C8.37 12.05 7.74 10.18 8.74 7.64C8.74 7.64 10.29 7.14 13.81 9.53C15.28 9.12 16.86 8.92 18.43 8.91C19.99 8.92 21.57 9.12 23.04 9.53C26.56 7.14 28.11 7.64 28.11 7.64C29.11 10.18 28.48 12.05 28.29 12.52C29.47 13.81 30.19 15.45 30.19 17.46C30.19 24.54 25.87 26.1 21.77 26.56C22.43 27.13 23.02 28.25 23.02 29.97C23.02 32.44 23 34.42 23 35.03C23 35.52 23.33 36.1 24.26 35.91C31.58 33.47 36.86 26.57 36.86 18.43C36.86 8.25 28.61 0 18.43 0Z" fill="#47474A" fill-opacity="1.000000" fill-rule="nonzero"/>
		<path id="Vector" d="M6.9 26.25C6.86 26.34 6.71 26.37 6.58 26.31C6.45 26.25 6.37 26.12 6.42 26.03C6.46 25.94 6.6 25.91 6.73 25.97C6.87 26.03 6.94 26.16 6.9 26.25ZM7.81 27.06C7.72 27.14 7.55 27.1 7.43 26.98C7.31 26.85 7.29 26.67 7.37 26.59C7.47 26.51 7.63 26.55 7.75 26.68C7.87 26.81 7.9 26.98 7.8 27.06L7.81 27.06ZM8.43 28.1C8.31 28.17 8.13 28.1 8.02 27.94C7.9 27.77 7.9 27.58 8.02 27.5C8.13 27.42 8.31 27.49 8.43 27.65C8.54 27.82 8.54 28.02 8.43 28.1L8.43 28.1ZM9.48 29.29C9.38 29.41 9.16 29.38 9.01 29.22C8.84 29.08 8.8 28.86 8.9 28.75C9 28.64 9.22 28.67 9.38 28.82C9.54 28.97 9.59 29.18 9.48 29.29ZM10.84 29.7C10.79 29.84 10.59 29.91 10.38 29.85C10.17 29.78 10.03 29.62 10.08 29.47C10.12 29.32 10.33 29.26 10.54 29.32C10.75 29.38 10.88 29.55 10.84 29.7ZM12.39 29.87C12.39 30.02 12.21 30.15 11.99 30.15C11.77 30.16 11.6 30.03 11.59 29.88C11.59 29.73 11.77 29.61 11.99 29.6C12.21 29.6 12.39 29.72 12.39 29.87ZM13.91 29.81C13.93 29.96 13.78 30.11 13.56 30.15C13.35 30.19 13.15 30.1 13.12 29.95C13.1 29.8 13.25 29.65 13.46 29.61C13.68 29.57 13.88 29.66 13.91 29.81Z" fill="#47474A" fill-opacity="1.000000" fill-rule="nonzero"/>
	</g>
</svg>
