<svg width="56.000000" height="56.000000" viewBox="0 0 56 56" fill="none" xmlns="http://www.w3.org/2000/svg" xmlns:xlink="http://www.w3.org/1999/xlink">
	<desc>
			Created with Pixso.
	</desc>
	<defs>
		<clipPath id="clip9_3809">
			<rect id="html-5 1" rx="-0.500000" width="55.000000" height="55.000000" transform="translate(0.500000 0.500000)" fill="white" fill-opacity="0"/>
		</clipPath>
	</defs>
	<rect id="html-5 1" rx="-0.500000" width="55.000000" height="55.000000" transform="translate(0.500000 0.500000)" fill="#FFFFFF" fill-opacity="0"/>
	<g clip-path="url(#clip9_3809)">
		<path id="Vector" d="M11.85 0L14.37 0L14.37 2.49L16.69 2.49L16.69 0L19.2 0L19.2 7.54L16.69 7.54L16.69 5.03L14.39 5.03L14.39 7.54L11.85 7.54L11.85 0ZM22.53 2.51L20.31 2.51L20.31 0L27.27 0L27.27 2.51L25.04 2.51L25.04 7.54L22.53 7.54L22.53 2.51ZM28.38 0L31.01 0L32.63 2.65L34.25 0L36.89 0L36.89 7.54L34.37 7.54L34.37 3.8L32.61 6.51L30.85 3.8L30.85 7.54L28.38 7.54L28.38 0ZM38.13 0L40.65 0L40.65 5.05L44.22 5.05L44.22 7.54L38.13 7.54L38.13 0Z" fill="#000000" fill-opacity="1.000000" fill-rule="nonzero"/>
		<path id="Vector" d="M11.76 51.51L8.15 11L47.84 11L44.23 51.49L27.96 56L11.76 51.51Z" fill="#FF4C1E" fill-opacity="1.000000" fill-rule="nonzero"/>
		<path id="Vector" d="M28 52.55L28 14.32L44.22 14.32L41.12 48.89L28 52.55Z" fill="#FF651E" fill-opacity="1.000000" fill-rule="nonzero"/>
		<path id="Vector" d="M15.53 19.28L28 19.28L29.85 21.76L28 24.24L20.97 24.24L21.43 29.33L28 29.33L29.85 31.91L28 34.28L16.88 34.28L15.53 19.28ZM17.1 36.78L22.09 36.78L22.44 40.75L28 42.24L30.09 44.71L28 47.42L17.8 44.58L17.1 36.78Z" fill="#EBEBEB" fill-opacity="1.000000" fill-rule="nonzero"/>
		<path id="Vector" d="M40.42 19.28L27.97 19.28L27.97 24.24L39.96 24.24L40.42 19.28ZM39.51 29.33L27.97 29.33L27.97 34.29L34.1 34.29L33.52 40.75L27.97 42.24L27.97 47.4L38.15 44.58L39.51 29.33Z" fill="#FFFFFF" fill-opacity="1.000000" fill-rule="nonzero"/>
	</g>
</svg>
