<svg width="56.000000" height="56.000000" viewBox="0 0 56 56" fill="none" xmlns="http://www.w3.org/2000/svg" xmlns:xlink="http://www.w3.org/1999/xlink">
	<desc>
			Created with Pixso.
	</desc>
	<defs>
		<clipPath id="clip9_3937">
			<rect id="js 1" rx="-0.500000" width="55.000000" height="55.000000" transform="translate(0.500000 0.500000)" fill="white" fill-opacity="0"/>
		</clipPath>
	</defs>
	<rect id="js 1" rx="-0.500000" width="55.000000" height="55.000000" transform="translate(0.500000 0.500000)" fill="#FFFFFF" fill-opacity="0"/>
	<g clip-path="url(#clip9_3937)">
		<path id="Vector" d="M0 0L56 0L56 56L0 56L0 0Z" fill="#FFDF00" fill-opacity="1.000000" fill-rule="nonzero"/>
		<path id="Vector" d="M37.61 43.75C38.74 45.59 40.21 46.94 42.8 46.94C44.98 46.94 46.38 45.85 46.38 44.35C46.38 42.54 44.95 41.9 42.55 40.85L41.23 40.29C37.43 38.67 34.91 36.64 34.91 32.36C34.91 28.41 37.92 25.41 42.62 25.41C45.96 25.41 48.37 26.57 50.1 29.62L46 32.25C45.1 30.63 44.13 30 42.62 30C41.08 30 40.1 30.97 40.1 32.25C40.1 33.83 41.08 34.47 43.33 35.45L44.65 36.01C49.12 37.93 51.65 39.88 51.65 44.28C51.65 49.02 47.92 51.61 42.93 51.61C38.04 51.61 34.88 49.28 33.34 46.23L37.61 43.75ZM19.02 44.2C19.85 45.67 20.6 46.91 22.41 46.91C24.14 46.91 25.23 46.23 25.23 43.6L25.23 25.71L30.49 25.71L30.49 43.67C30.49 49.12 27.3 51.6 22.63 51.6C18.42 51.6 15.98 49.42 14.74 46.79L19.02 44.2Z" fill="#000000" fill-opacity="1.000000" fill-rule="nonzero"/>
	</g>
</svg>
